<svg width="25" height="24" viewBox="0 0 25 24" fill="none" xmlns="http://www.w3.org/2000/svg">
<g clip-path="url(#clip0_134_31)">
<path d="M23.04 6.42C22.9212 5.94541 22.6792 5.51057 22.3386 5.15941C21.998 4.80824 21.5707 4.55318 21.1 4.42C19.38 4 12.5 4 12.5 4C12.5 4 5.61996 4 3.89996 4.46C3.42921 4.59318 3.00194 4.84824 2.66131 5.19941C2.32068 5.55057 2.07875 5.98541 1.95996 6.46C1.64518 8.20556 1.4912 9.97631 1.49996 11.75C1.48874 13.537 1.64273 15.3213 1.95996 17.08C2.09092 17.5398 2.33827 17.9581 2.67811 18.2945C3.01794 18.6308 3.43878 18.8738 3.89996 19C5.61996 19.46 12.5 19.46 12.5 19.46C12.5 19.46 19.38 19.46 21.1 19C21.5707 18.8668 21.998 18.6118 22.3386 18.2606C22.6792 17.9094 22.9212 17.4746 23.04 17C23.3523 15.2676 23.5063 13.5103 23.5 11.75C23.5112 9.96295 23.3572 8.1787 23.04 6.42Z" stroke="white" stroke-width="2" stroke-linecap="round" stroke-linejoin="round"/>
<path d="M10.25 15.02L16 11.75L10.25 8.47998V15.02Z" stroke="white" stroke-width="2" stroke-linecap="round" stroke-linejoin="round"/>
</g>
<defs>
<clipPath id="clip0_134_31">
<rect width="24" height="24" fill="white" transform="translate(0.5)"/>
</clipPath>
</defs>
</svg>
